<svg width="25" height="24" viewBox="0 0 25 24" fill="none" xmlns="http://www.w3.org/2000/svg">
<path d="M1.89922 16.1996C1.55922 16.1996 1.27442 16.0844 1.04482 15.854C0.814419 15.6244 0.699219 15.3396 0.699219 14.9996C0.699219 14.6596 0.814419 14.3744 1.04482 14.144C1.27442 13.9144 1.55922 13.7996 1.89922 13.7996H6.69922V12.5996H4.29922C3.95922 12.5996 3.67402 12.4844 3.44362 12.254C3.21402 12.0244 3.09922 11.7396 3.09922 11.3996C3.09922 11.0596 3.21402 10.7744 3.44362 10.544C3.67402 10.3144 3.95922 10.1996 4.29922 10.1996H6.69922C7.35922 10.1996 7.92402 10.4344 8.39362 10.904C8.86402 11.3744 9.09922 11.9396 9.09922 12.5996V13.7996H11.4992V5.51961C11.4992 4.13961 11.9792 2.97481 12.9392 2.02521C13.8992 1.07481 15.0692 0.599609 16.4492 0.599609C17.3692 0.599609 18.2192 0.839609 18.9992 1.31961C19.7792 1.79961 20.3792 2.45961 20.7992 3.29961L21.6392 4.97961C21.7992 5.27961 21.8244 5.58441 21.7148 5.89401C21.6044 6.20441 21.3992 6.43961 21.0992 6.59961C20.7992 6.75961 20.4944 6.78441 20.1848 6.67401C19.8744 6.56441 19.6392 6.35961 19.4792 6.05961L18.6392 4.37961C18.4192 3.95961 18.1092 3.62441 17.7092 3.37401C17.3092 3.12441 16.8792 2.99961 16.4192 2.99961C15.7192 2.99961 15.1244 3.24441 14.6348 3.73401C14.1444 4.22441 13.8992 4.81961 13.8992 5.51961V13.7996H16.2992V12.5996C16.2992 11.9396 16.5344 11.3744 17.0048 10.904C17.4744 10.4344 18.0392 10.1996 18.6992 10.1996H21.0992C21.4392 10.1996 21.724 10.3144 21.9536 10.544C22.184 10.7744 22.2992 11.0596 22.2992 11.3996C22.2992 11.7396 22.184 12.0244 21.9536 12.254C21.724 12.4844 21.4392 12.5996 21.0992 12.5996H18.6992V13.7996H23.4992C23.8392 13.7996 24.124 13.9144 24.3536 14.144C24.584 14.3744 24.6992 14.6596 24.6992 14.9996C24.6992 15.3396 24.584 15.6244 24.3536 15.854C24.124 16.0844 23.8392 16.1996 23.4992 16.1996H1.89922ZM5.49922 23.3996C4.83922 23.3996 4.27442 23.1648 3.80482 22.6952C3.33442 22.2248 3.09922 21.6596 3.09922 20.9996V17.3996H22.2992V20.9996C22.2992 21.6596 22.0644 22.2248 21.5948 22.6952C21.1244 23.1648 20.5592 23.3996 19.8992 23.3996H5.49922Z" fill="#737373"/>
</svg>
