<svg width="65" height="32" viewBox="0 0 65 32" fill="none" xmlns="http://www.w3.org/2000/svg">
<path fill-rule="evenodd" clip-rule="evenodd" d="M46.0827 1.8167C46.0827 2.80386 45.2824 3.6041 44.2952 3.6041C43.3081 3.6041 42.5078 2.80386 42.5078 1.8167C42.5078 0.829545 43.3081 0.0292969 44.2952 0.0292969C45.2824 0.0292969 46.0827 0.829545 46.0827 1.8167ZM35.3582 3.60456C35.3582 4.59171 34.5579 5.39196 33.5708 5.39196C32.5836 5.39196 31.7834 4.59171 31.7834 3.60456C31.7834 2.6174 32.5836 1.81715 33.5708 1.81715C34.5579 1.81715 35.3582 2.6174 35.3582 3.60456ZM26.4216 7.17894C26.4216 8.1661 25.6213 8.96634 24.6342 8.96634C23.647 8.96634 22.8467 8.1661 22.8467 7.17894C22.8467 6.19178 23.647 5.39154 24.6342 5.39154C25.6213 5.39154 26.4216 6.19178 26.4216 7.17894ZM19.2715 12.5412C19.2715 13.5283 18.4712 14.3286 17.4841 14.3286C16.4969 14.3286 15.6967 13.5283 15.6967 12.5412C15.6967 11.554 16.4969 10.7538 17.4841 10.7538C18.4712 10.7538 19.2715 11.554 19.2715 12.5412ZM26.4216 16.5443C26.4216 17.5314 25.6213 18.3317 24.6342 18.3317C23.647 18.3317 22.8467 17.5314 22.8467 16.5443C22.8467 15.5571 23.647 14.7569 24.6342 14.7569C25.6213 14.7569 26.4216 15.5571 26.4216 16.5443ZM17.4841 23.9355C18.4712 23.9355 19.2715 23.1352 19.2715 22.1481C19.2715 21.1609 18.4712 20.3607 17.4841 20.3607C16.4969 20.3607 15.6967 21.1609 15.6967 22.1481C15.6967 23.1352 16.4969 23.9355 17.4841 23.9355ZM31.7829 14.3286C32.7701 14.3286 33.5703 13.5283 33.5703 12.5412C33.5703 11.554 32.7701 10.7538 31.7829 10.7538C30.7958 10.7538 29.9955 11.554 29.9955 12.5412C29.9955 13.5283 30.7958 14.3286 31.7829 14.3286ZM40.7195 11.6992C41.7067 11.6992 42.5069 10.899 42.5069 9.91182C42.5069 8.92467 41.7067 8.12442 40.7195 8.12442C39.7324 8.12442 38.9321 8.92467 38.9321 9.91182C38.9321 10.899 39.7324 11.6992 40.7195 11.6992ZM49.6575 12.6456C50.6446 12.6456 51.4449 11.8453 51.4449 10.8582C51.4449 9.87102 50.6446 9.07078 49.6575 9.07078C48.6703 9.07078 47.8701 9.87102 47.8701 10.8582C47.8701 11.8453 48.6703 12.6456 49.6575 12.6456ZM59.1259 15.9536C59.1259 16.9408 58.3257 17.741 57.3385 17.741C56.3513 17.741 55.5511 16.9408 55.5511 15.9536C55.5511 14.9665 56.3513 14.1662 57.3385 14.1662C58.3257 14.1662 59.1259 14.9665 59.1259 15.9536ZM54.0734 5.39196C55.0605 5.39196 55.8608 4.59171 55.8608 3.60456C55.8608 2.6174 55.0605 1.81715 54.0734 1.81715C53.0862 1.81715 52.286 2.6174 52.286 3.60456C52.286 4.59171 53.0862 5.39196 54.0734 5.39196ZM64.9036 8.96547C64.9036 9.95262 64.1033 10.7529 63.1162 10.7529C62.129 10.7529 61.3288 9.95262 61.3288 8.96547C61.3288 7.97831 62.129 7.17806 63.1162 7.17806C64.1033 7.17806 64.9036 7.97831 64.9036 8.96547ZM3.46438 7.50458C1.96311 7.50458 0.746094 8.7216 0.746094 10.2229V29.2508C0.746094 30.7521 1.96311 31.9691 3.46438 31.9691H6.18266C7.68393 31.9691 8.90094 30.7521 8.90094 29.2508V10.2229C8.90094 8.72159 7.68393 7.50458 6.18266 7.50458H3.46438Z" fill="#171717"/>
</svg>
