<svg width="11" height="23" viewBox="0 0 11 23" fill="none" xmlns="http://www.w3.org/2000/svg">
<path d="M5.50018 6.31779C5.06836 6.31779 4.70131 6.16665 4.39904 5.86438C4.09677 5.56211 3.94563 5.19506 3.94563 4.76325C3.94563 4.33143 4.09677 3.96438 4.39904 3.66211C4.70131 3.35984 5.06836 3.2087 5.50018 3.2087C5.932 3.2087 6.29904 3.35984 6.60131 3.66211C6.90359 3.96438 7.05472 4.33143 7.05472 4.76325C7.05472 5.19506 6.90359 5.56211 6.60131 5.86438C6.29904 6.16665 5.932 6.31779 5.50018 6.31779ZM5.50018 22.8996C4.06654 22.8996 2.8445 22.3944 1.83404 21.3839C0.823587 20.3735 0.318359 19.1514 0.318359 17.7178V5.28143C0.318359 3.84779 0.823587 2.62575 1.83404 1.61529C2.8445 0.604837 4.06654 0.0996094 5.50018 0.0996094C6.93381 0.0996094 8.15586 0.604837 9.16631 1.61529C10.1768 2.62575 10.682 3.84779 10.682 5.28143V17.7178C10.682 19.1514 10.1768 20.3735 9.16631 21.3839C8.15586 22.3944 6.93381 22.8996 5.50018 22.8996ZM5.50018 7.35415C6.22563 7.35415 6.83881 7.1037 7.33972 6.60279C7.84063 6.10188 8.09109 5.4887 8.09109 4.76325C8.09109 4.03779 7.84063 3.42461 7.33972 2.9237C6.83881 2.42279 6.22563 2.17234 5.50018 2.17234C4.77472 2.17234 4.16154 2.42279 3.66063 2.9237C3.15972 3.42461 2.90927 4.03779 2.90927 4.76325C2.90927 5.4887 3.15972 6.10188 3.66063 6.60279C4.16154 7.1037 4.77472 7.35415 5.50018 7.35415ZM3.94563 15.6451C4.23927 15.6451 4.4854 15.5457 4.68404 15.3471C4.88268 15.1485 4.982 14.9023 4.982 14.6087C4.982 14.3151 4.88268 14.0689 4.68404 13.8703C4.4854 13.6717 4.23927 13.5723 3.94563 13.5723C3.652 13.5723 3.40586 13.6717 3.20722 13.8703C3.00859 14.0689 2.90927 14.3151 2.90927 14.6087C2.90927 14.9023 3.00859 15.1485 3.20722 15.3471C3.40586 15.5457 3.652 15.6451 3.94563 15.6451ZM3.94563 12.536C4.23927 12.536 4.4854 12.4367 4.68404 12.238C4.88268 12.0394 4.982 11.7932 4.982 11.4996C4.982 11.206 4.88268 10.9598 4.68404 10.7612C4.4854 10.5626 4.23927 10.4632 3.94563 10.4632C3.652 10.4632 3.40586 10.5626 3.20722 10.7612C3.00859 10.9598 2.90927 11.206 2.90927 11.4996C2.90927 11.7932 3.00859 12.0394 3.20722 12.238C3.40586 12.4367 3.652 12.536 3.94563 12.536ZM7.05472 12.536C7.34836 12.536 7.5945 12.4367 7.79313 12.238C7.99177 12.0394 8.09109 11.7932 8.09109 11.4996C8.09109 11.206 7.99177 10.9598 7.79313 10.7612C7.5945 10.5626 7.34836 10.4632 7.05472 10.4632C6.76109 10.4632 6.51495 10.5626 6.31631 10.7612C6.11768 10.9598 6.01836 11.206 6.01836 11.4996C6.01836 11.7932 6.11768 12.0394 6.31631 12.238C6.51495 12.4367 6.76109 12.536 7.05472 12.536ZM7.05472 15.6451C7.34836 15.6451 7.5945 15.5457 7.79313 15.3471C7.99177 15.1485 8.09109 14.9023 8.09109 14.6087C8.09109 14.3151 7.99177 14.0689 7.79313 13.8703C7.5945 13.6717 7.34836 13.5723 7.05472 13.5723C6.76109 13.5723 6.51495 13.6717 6.31631 13.8703C6.11768 14.0689 6.01836 14.3151 6.01836 14.6087C6.01836 14.9023 6.11768 15.1485 6.31631 15.3471C6.51495 15.5457 6.76109 15.6451 7.05472 15.6451ZM3.94563 18.7542C4.23927 18.7542 4.4854 18.6548 4.68404 18.4562C4.88268 18.2576 4.982 18.0114 4.982 17.7178C4.982 17.4242 4.88268 17.178 4.68404 16.9794C4.4854 16.7807 4.23927 16.6814 3.94563 16.6814C3.652 16.6814 3.40586 16.7807 3.20722 16.9794C3.00859 17.178 2.90927 17.4242 2.90927 17.7178C2.90927 18.0114 3.00859 18.2576 3.20722 18.4562C3.40586 18.6548 3.652 18.7542 3.94563 18.7542ZM7.05472 18.7542C7.34836 18.7542 7.5945 18.6548 7.79313 18.4562C7.99177 18.2576 8.09109 18.0114 8.09109 17.7178C8.09109 17.4242 7.99177 17.178 7.79313 16.9794C7.5945 16.7807 7.34836 16.6814 7.05472 16.6814C6.76109 16.6814 6.51495 16.7807 6.31631 16.9794C6.11768 17.178 6.01836 17.4242 6.01836 17.7178C6.01836 18.0114 6.11768 18.2576 6.31631 18.4562C6.51495 18.6548 6.76109 18.7542 7.05472 18.7542Z" fill="white"/>
</svg>
