<svg width="60" height="42" viewBox="0 0 60 42" fill="none" xmlns="http://www.w3.org/2000/svg">
<path fill-rule="evenodd" clip-rule="evenodd" d="M1.71741 9.73232C1.57681 9.23939 1.42931 8.7136 1.2858 8.18737C0.847172 6.57902 1.88056 4.98314 3.51342 4.6471L22.4226 0.755634C23.9644 0.438338 25.4904 1.36214 25.9241 2.87532L26.2139 3.88647C26.692 5.55489 25.6679 7.28027 23.9733 7.6552L5.22149 11.8039C3.68611 12.1436 2.14873 11.2445 1.71741 9.73232ZM17.6155 15.6318C17.6155 16.5875 16.8408 17.3622 15.8851 17.3622C14.9295 17.3622 14.1547 16.5875 14.1547 15.6318C14.1547 14.6761 14.9295 13.9014 15.8851 13.9014C16.8408 13.9014 17.6155 14.6761 17.6155 15.6318ZM17.6161 31.2061C18.5717 31.2061 19.3464 30.4314 19.3464 29.4757C19.3464 28.5201 18.5717 27.7453 17.6161 27.7453C16.6604 27.7453 15.8857 28.5201 15.8857 29.4757C15.8857 30.4314 16.6604 31.2061 17.6161 31.2061ZM31.4595 27.7448C31.4595 28.7005 30.6847 29.4752 29.7291 29.4752C28.7734 29.4752 27.9987 28.7005 27.9987 27.7448C27.9987 26.7892 28.7734 26.0144 29.7291 26.0144C30.6847 26.0144 31.4595 26.7892 31.4595 27.7448ZM22.808 22.5532C23.7636 22.5532 24.5383 21.7785 24.5383 20.8229C24.5383 19.8672 23.7636 19.0925 22.808 19.0925C21.8523 19.0925 21.0776 19.8672 21.0776 20.8229C21.0776 21.7785 21.8523 22.5532 22.808 22.5532ZM12.4253 22.5538C12.4253 23.5094 11.6506 24.2842 10.6949 24.2842C9.73926 24.2842 8.96454 23.5094 8.96454 22.5538C8.96454 21.5981 9.73926 20.8234 10.6949 20.8234C11.6506 20.8234 12.4253 21.5981 12.4253 22.5538ZM6.37188 32.9354C7.32755 32.9354 8.10227 32.1606 8.10227 31.205C8.10227 30.2493 7.32755 29.4746 6.37188 29.4746C5.41621 29.4746 4.64149 30.2493 4.64149 31.205C4.64149 32.1606 5.41621 32.9354 6.37188 32.9354ZM3.77328 39.8578C3.77328 40.8135 2.99856 41.5882 2.04289 41.5882C1.08722 41.5882 0.3125 40.8135 0.3125 39.8578C0.3125 38.9022 1.08722 38.1275 2.04289 38.1275C2.99856 38.1275 3.77328 38.9022 3.77328 39.8578ZM14.1559 39.8573C15.1116 39.8573 15.8863 39.0826 15.8863 38.1269C15.8863 37.1713 15.1116 36.3965 14.1559 36.3965C13.2002 36.3965 12.4255 37.1713 12.4255 38.1269C12.4255 39.0826 13.2002 39.8573 14.1559 39.8573ZM27.9993 36.3969C27.9993 37.3525 27.2246 38.1273 26.2689 38.1273C25.3133 38.1273 24.5385 37.3525 24.5385 36.3969C24.5385 35.4412 25.3133 34.6665 26.2689 34.6665C27.2246 34.6665 27.9993 35.4412 27.9993 36.3969ZM38.3811 36.3963C39.3368 36.3963 40.1115 35.6216 40.1115 34.6659C40.1115 33.7103 39.3368 32.9356 38.3811 32.9356C37.4254 32.9356 36.6507 33.7103 36.6507 34.6659C36.6507 35.6216 37.4254 36.3963 38.3811 36.3963Z" fill="#171717"/>
</svg>
