<svg width="52" height="50" viewBox="0 0 52 50" fill="none" xmlns="http://www.w3.org/2000/svg">
<g clip-path="url(#clip0_4221_14682)">
<path d="M11.9478 13.9823C11.8366 13.476 11.722 12.9447 11.6112 12.4158C11.2521 10.7017 12.3638 9.06042 14.0749 8.6871L30.5402 5.09466C32.3194 4.70647 34.0775 5.83005 34.4726 7.60772L34.7036 8.64725C35.0959 10.4129 33.9971 12.166 32.2369 12.582L15.8928 16.4452C14.1163 16.8651 12.3393 15.7652 11.9478 13.9823Z" fill="#171717"/>
<path fill-rule="evenodd" clip-rule="evenodd" d="M28.3423 17.7705C28.1979 17.3374 27.7298 17.1034 27.2967 17.2477C26.8637 17.3921 26.6296 17.8602 26.774 18.2933C26.7738 18.2929 26.7739 18.2931 26.7742 18.294C26.7755 18.2986 26.7821 18.3213 26.7944 18.3713C26.8077 18.4255 26.8242 18.4976 26.844 18.5886C26.8836 18.7703 26.9336 19.0143 26.993 19.3164C27.1116 19.9199 27.2655 20.7413 27.4463 21.7308C27.8078 23.7092 28.2749 26.3491 28.7793 29.2397C29.7881 35.0204 30.945 41.7968 31.7026 46.2733C31.7787 46.7234 32.2054 47.0265 32.6555 46.9503C33.1056 46.8742 33.4087 46.4475 33.3325 45.9974C32.5747 41.5193 31.4173 34.74 30.4078 28.9555C29.9032 26.0636 29.4352 23.4186 29.0725 21.4337C28.8913 20.4416 28.7358 19.6118 28.615 18.9975C28.5009 18.417 28.4047 17.9578 28.3423 17.7705ZM22.5563 19.0103C22.4119 18.5772 21.9438 18.3432 21.5107 18.4876C21.0776 18.6319 20.8436 19.1 20.988 19.5331C20.9878 19.5327 20.9879 19.5329 20.9882 19.5338C20.9895 19.5385 20.9961 19.5611 21.0084 19.6111C21.0217 19.6653 21.0382 19.7374 21.058 19.8284C21.0976 20.0101 21.1475 20.2542 21.2069 20.5563C21.3256 21.1597 21.4795 21.9811 21.6603 22.9707C22.0218 24.949 22.4888 27.5889 22.9933 30.4795C24.0021 36.2602 25.159 43.0366 25.9166 47.5131C25.9927 47.9632 26.4194 48.2663 26.8695 48.1902C27.3196 48.114 27.6227 47.6874 27.5465 47.2372C26.7887 42.7592 25.6312 35.9798 24.6218 30.1953C24.1171 27.3034 23.6492 24.6584 23.2865 22.6735C23.1053 21.6815 22.9498 20.8516 22.829 20.2373C22.7149 19.6568 22.6187 19.1977 22.5563 19.0103Z" fill="#171717"/>
</g>
<defs>
<clipPath id="clip0_4221_14682">
<rect width="49" height="44.8199" fill="white" transform="translate(2.66797 3)"/>
</clipPath>
</defs>
</svg>
